<svg width="14" height="15" viewBox="0 0 14 15" fill="none" xmlns="http://www.w3.org/2000/svg">
<g clip-path="url(#clip0_2031_721)">
<path d="M12.25 4.2443C10.3075 4.0518 8.35333 3.95264 6.405 3.95264C5.25 3.95264 4.095 4.01097 2.94 4.12764L1.75 4.2443" stroke="black" stroke-opacity="0.85" stroke-width="1.5" stroke-linecap="round" stroke-linejoin="round"/>
<path d="M4.9585 3.65486L5.08683 2.8907C5.18016 2.33653 5.25016 1.92236 6.236 1.92236L7.76433 1.92236C8.75016 1.92236 8.826 2.35986 8.9135 2.89653L9.04183 3.65486" stroke="black" stroke-opacity="0.85" stroke-width="1.5" stroke-linecap="round" stroke-linejoin="round"/>
<path d="M10.9956 6.0874L10.6164 11.9616C10.5522 12.8774 10.4997 13.5891 8.87224 13.5891H5.12724C3.49974 13.5891 3.44724 12.8774 3.38307 11.9616L3.00391 6.0874" stroke="black" stroke-opacity="0.85" stroke-width="1.5" stroke-linecap="round" stroke-linejoin="round"/>
<path d="M6.02539 10.3809H7.96789" stroke="black" stroke-opacity="0.85" stroke-width="1.5" stroke-linecap="round" stroke-linejoin="round"/>
<path d="M5.5415 8.04736H8.45817" stroke="black" stroke-opacity="0.85" stroke-width="1.5" stroke-linecap="round" stroke-linejoin="round"/>
</g>
<defs>
<clipPath id="clip0_2031_721">
<rect width="14" height="14" fill="white" transform="translate(0 0.755859)"/>
</clipPath>
</defs>
</svg>
